<mxfile host="app.diagrams.net" agent="Mozilla/5.0 (Windows NT 10.0; Win64; x64) AppleWebKit/537.36 (KHTML, like Gecko) Chrome/127.0.0.0 Safari/537.36" version="24.7.4">
  <diagram name="Página-1" id="4Kyi8yGbFn2UixfiQRns">
    <mxGraphModel>
      <root>
        <mxCell id="0" />
        <mxCell id="1" parent="0" />
        <mxCell id="2" value="Inicio" style="whiteSpace=wrap;strokeWidth=2;" vertex="1" parent="1">
          <mxGeometry y="496" width="54" height="34" as="geometry" />
        </mxCell>
        <mxCell id="3" value="Red Social de Bienestar Mental y Emocional" style="whiteSpace=wrap;strokeWidth=2;" vertex="1" parent="1">
          <mxGeometry x="104" y="496" width="327" height="34" as="geometry" />
        </mxCell>
        <mxCell id="4" value="Registro de Usuario" style="ellipse;aspect=fixed;strokeWidth=2;whiteSpace=wrap;" vertex="1" parent="1">
          <mxGeometry x="481" y="436" width="154" height="154" as="geometry" />
        </mxCell>
        <mxCell id="5" value="¿Usuario Nuevo?" style="rhombus;strokeWidth=2;whiteSpace=wrap;" vertex="1" parent="1">
          <mxGeometry x="685" y="432" width="163" height="163" as="geometry" />
        </mxCell>
        <mxCell id="6" value="Crear Cuenta" style="whiteSpace=wrap;strokeWidth=2;" vertex="1" parent="1">
          <mxGeometry x="1851" y="411" width="110" height="34" as="geometry" />
        </mxCell>
        <mxCell id="7" value="Iniciar Sesión" style="whiteSpace=wrap;strokeWidth=2;" vertex="1" parent="1">
          <mxGeometry x="917" y="582" width="110" height="34" as="geometry" />
        </mxCell>
        <mxCell id="8" value="¿Olvidaste tu contraseña?" style="rhombus;strokeWidth=2;whiteSpace=wrap;" vertex="1" parent="1">
          <mxGeometry x="1077" y="483" width="231" height="231" as="geometry" />
        </mxCell>
        <mxCell id="9" value="Recuperar Contraseña" style="whiteSpace=wrap;strokeWidth=2;" vertex="1" parent="1">
          <mxGeometry x="1372" y="601" width="173" height="34" as="geometry" />
        </mxCell>
        <mxCell id="10" value="Ingresar Contraseña" style="whiteSpace=wrap;strokeWidth=2;" vertex="1" parent="1">
          <mxGeometry x="1595" y="582" width="158" height="34" as="geometry" />
        </mxCell>
        <mxCell id="11" value="¿Contraseña Correcta?" style="rhombus;strokeWidth=2;whiteSpace=wrap;" vertex="1" parent="1">
          <mxGeometry x="1803" y="495" width="208" height="208" as="geometry" />
        </mxCell>
        <mxCell id="12" value="Dashboard" style="whiteSpace=wrap;strokeWidth=2;" vertex="1" parent="1">
          <mxGeometry x="2116" y="396" width="90" height="34" as="geometry" />
        </mxCell>
        <mxCell id="13" value="Verificar Contraseña" style="whiteSpace=wrap;strokeWidth=2;" vertex="1" parent="1">
          <mxGeometry x="2080" y="648" width="163" height="34" as="geometry" />
        </mxCell>
        <mxCell id="14" value="Foro de Discusión" style="whiteSpace=wrap;strokeWidth=2;" vertex="1" parent="1">
          <mxGeometry x="2627" y="531" width="140" height="34" as="geometry" />
        </mxCell>
        <mxCell id="15" value="Chat Grupal" style="whiteSpace=wrap;strokeWidth=2;" vertex="1" parent="1">
          <mxGeometry x="2326" y="203" width="101" height="34" as="geometry" />
        </mxCell>
        <mxCell id="16" value="Módulos de Bienestar" style="whiteSpace=wrap;strokeWidth=2;" vertex="1" parent="1">
          <mxGeometry x="2292" y="713" width="169" height="34" as="geometry" />
        </mxCell>
        <mxCell id="17" value="¿Nuevo Post o Comentario?" style="rhombus;strokeWidth=2;whiteSpace=wrap;" vertex="1" parent="1">
          <mxGeometry x="3490" y="222" width="241" height="241" as="geometry" />
        </mxCell>
        <mxCell id="18" value="Publicar Contenido" style="whiteSpace=wrap;strokeWidth=2;" vertex="1" parent="1">
          <mxGeometry x="3886" y="269" width="151" height="34" as="geometry" />
        </mxCell>
        <mxCell id="19" value="Comentar en Publicación" style="whiteSpace=wrap;strokeWidth=2;" vertex="1" parent="1">
          <mxGeometry x="3865" y="353" width="194" height="34" as="geometry" />
        </mxCell>
        <mxCell id="20" value="¿Unirse a Chat existente o Crear Nuevo Chat?" style="rhombus;strokeWidth=2;whiteSpace=wrap;" vertex="1" parent="1">
          <mxGeometry x="2511" y="98" width="373" height="373" as="geometry" />
        </mxCell>
        <mxCell id="21" value="Seleccionar Chat existente" style="whiteSpace=wrap;strokeWidth=2;" vertex="1" parent="1">
          <mxGeometry x="2979" y="22" width="207" height="34" as="geometry" />
        </mxCell>
        <mxCell id="22" value="Crear Nuevo Chat" style="whiteSpace=wrap;strokeWidth=2;" vertex="1" parent="1">
          <mxGeometry x="3012" y="513" width="142" height="34" as="geometry" />
        </mxCell>
        <mxCell id="23" value="¿Invitar a Usuarios?" style="rhombus;strokeWidth=2;whiteSpace=wrap;" vertex="1" parent="1">
          <mxGeometry x="3236" y="437" width="185" height="185" as="geometry" />
        </mxCell>
        <mxCell id="24" value="Enviar Invitación" style="whiteSpace=wrap;strokeWidth=2;" vertex="1" parent="1">
          <mxGeometry x="3543" y="513" width="135" height="34" as="geometry" />
        </mxCell>
        <mxCell id="25" value="" style="curved=1;startArrow=none;endArrow=block;exitX=1;exitY=0.51;entryX=0;entryY=0.51;" edge="1" parent="1" source="2" target="3">
          <mxGeometry relative="1" as="geometry">
            <Array as="points" />
          </mxGeometry>
        </mxCell>
        <mxCell id="26" value="" style="curved=1;startArrow=none;endArrow=block;exitX=1;exitY=0.51;entryX=0;entryY=0.5;" edge="1" parent="1" source="3" target="4">
          <mxGeometry relative="1" as="geometry">
            <Array as="points" />
          </mxGeometry>
        </mxCell>
        <mxCell id="27" value="" style="curved=1;startArrow=none;endArrow=block;exitX=1;exitY=0.5;entryX=0;entryY=0.5;" edge="1" parent="1" source="4" target="5">
          <mxGeometry relative="1" as="geometry">
            <Array as="points" />
          </mxGeometry>
        </mxCell>
        <mxCell id="28" value="Sí" style="curved=1;startArrow=none;endArrow=block;exitX=1;exitY=0.13;entryX=0;entryY=0.49;" edge="1" parent="1" source="5" target="6">
          <mxGeometry relative="1" as="geometry">
            <Array as="points">
              <mxPoint x="883" y="428" />
            </Array>
          </mxGeometry>
        </mxCell>
        <mxCell id="29" value="No" style="curved=1;startArrow=none;endArrow=block;exitX=1;exitY=0.87;entryX=0;entryY=0.49;" edge="1" parent="1" source="5" target="7">
          <mxGeometry relative="1" as="geometry">
            <Array as="points">
              <mxPoint x="883" y="599" />
            </Array>
          </mxGeometry>
        </mxCell>
        <mxCell id="30" value="" style="curved=1;startArrow=none;endArrow=block;exitX=1;exitY=0.49;entryX=0;entryY=0.5;" edge="1" parent="1" source="7" target="8">
          <mxGeometry relative="1" as="geometry">
            <Array as="points" />
          </mxGeometry>
        </mxCell>
        <mxCell id="31" value="Sí" style="curved=1;startArrow=none;endArrow=block;exitX=1;exitY=0.57;entryX=0;entryY=0.49;" edge="1" parent="1" source="8" target="9">
          <mxGeometry relative="1" as="geometry">
            <Array as="points">
              <mxPoint x="1340" y="618" />
            </Array>
          </mxGeometry>
        </mxCell>
        <mxCell id="32" value="No" style="curved=1;startArrow=none;endArrow=block;exitX=1;exitY=0.09;entryX=0.41;entryY=-0.01;" edge="1" parent="1" source="8" target="10">
          <mxGeometry relative="1" as="geometry">
            <Array as="points">
              <mxPoint x="1340" y="476" />
              <mxPoint x="1570" y="476" />
            </Array>
          </mxGeometry>
        </mxCell>
        <mxCell id="33" value="" style="curved=1;startArrow=none;endArrow=block;exitX=1;exitY=0.49;entryX=0;entryY=0.5;" edge="1" parent="1" source="10" target="11">
          <mxGeometry relative="1" as="geometry">
            <Array as="points" />
          </mxGeometry>
        </mxCell>
        <mxCell id="34" value="Sí" style="curved=1;startArrow=none;endArrow=block;exitX=0.84;exitY=0;entryX=0;entryY=0.33;" edge="1" parent="1" source="11" target="12">
          <mxGeometry relative="1" as="geometry">
            <Array as="points">
              <mxPoint x="2045" y="398" />
            </Array>
          </mxGeometry>
        </mxCell>
        <mxCell id="35" value="No" style="curved=1;startArrow=none;endArrow=block;exitX=1;exitY=0.74;entryX=0;entryY=0.49;" edge="1" parent="1" source="11" target="13">
          <mxGeometry relative="1" as="geometry">
            <Array as="points">
              <mxPoint x="2045" y="665" />
            </Array>
          </mxGeometry>
        </mxCell>
        <mxCell id="36" value="" style="curved=1;startArrow=none;endArrow=block;exitX=1;exitY=0.8;entryX=0.27;entryY=0.01;" edge="1" parent="1" source="12" target="14">
          <mxGeometry relative="1" as="geometry">
            <Array as="points">
              <mxPoint x="2267" y="437" />
              <mxPoint x="2486" y="437" />
            </Array>
          </mxGeometry>
        </mxCell>
        <mxCell id="37" value="" style="curved=1;startArrow=none;endArrow=block;exitX=0.6;exitY=0;entryX=0;entryY=0.38;" edge="1" parent="1" source="12" target="15">
          <mxGeometry relative="1" as="geometry">
            <Array as="points">
              <mxPoint x="2267" y="210" />
            </Array>
          </mxGeometry>
        </mxCell>
        <mxCell id="38" value="" style="curved=1;startArrow=none;endArrow=block;exitX=0.59;exitY=1;entryX=0.37;entryY=-0.01;" edge="1" parent="1" source="12" target="16">
          <mxGeometry relative="1" as="geometry">
            <Array as="points">
              <mxPoint x="2267" y="644" />
            </Array>
          </mxGeometry>
        </mxCell>
        <mxCell id="39" value="" style="curved=1;startArrow=none;endArrow=block;exitX=0.69;exitY=-0.01;entryX=0.07;entryY=1.01;" edge="1" parent="1" source="13" target="14">
          <mxGeometry relative="1" as="geometry">
            <Array as="points">
              <mxPoint x="2267" y="608" />
              <mxPoint x="2486" y="608" />
            </Array>
          </mxGeometry>
        </mxCell>
        <mxCell id="40" value="" style="curved=1;startArrow=none;endArrow=block;exitX=0.54;exitY=-0.01;entryX=0.4;entryY=1.01;" edge="1" parent="1" source="13" target="15">
          <mxGeometry relative="1" as="geometry">
            <Array as="points">
              <mxPoint x="2267" y="401" />
            </Array>
          </mxGeometry>
        </mxCell>
        <mxCell id="41" value="" style="curved=1;startArrow=none;endArrow=block;exitX=0.64;exitY=0.99;entryX=0;entryY=0.72;" edge="1" parent="1" source="13" target="16">
          <mxGeometry relative="1" as="geometry">
            <Array as="points">
              <mxPoint x="2267" y="740" />
            </Array>
          </mxGeometry>
        </mxCell>
        <mxCell id="42" value="" style="curved=1;startArrow=none;endArrow=block;exitX=0.66;exitY=0.99;entryX=0.35;entryY=1;" edge="1" parent="1" source="6" target="12">
          <mxGeometry relative="1" as="geometry">
            <Array as="points">
              <mxPoint x="2045" y="562" />
            </Array>
          </mxGeometry>
        </mxCell>
        <mxCell id="43" value="" style="curved=1;startArrow=none;endArrow=block;exitX=1;exitY=0.49;entryX=0;entryY=0.92;" edge="1" parent="1" source="9" target="10">
          <mxGeometry relative="1" as="geometry">
            <Array as="points">
              <mxPoint x="1570" y="618" />
            </Array>
          </mxGeometry>
        </mxCell>
        <mxCell id="44" value="" style="curved=1;startArrow=none;endArrow=block;exitX=0.62;exitY=0.01;entryX=0;entryY=0.41;" edge="1" parent="1" source="14" target="17">
          <mxGeometry relative="1" as="geometry">
            <Array as="points">
              <mxPoint x="2931" y="313" />
              <mxPoint x="3456" y="313" />
            </Array>
          </mxGeometry>
        </mxCell>
        <mxCell id="45" value="Post" style="curved=1;startArrow=none;endArrow=block;exitX=1;exitY=0.27;entryX=0;entryY=0.11;" edge="1" parent="1" source="17" target="18">
          <mxGeometry relative="1" as="geometry">
            <Array as="points">
              <mxPoint x="3798" y="258" />
            </Array>
          </mxGeometry>
        </mxCell>
        <mxCell id="46" value="Comentario" style="curved=1;startArrow=none;endArrow=block;exitX=1;exitY=0.46;entryX=0.15;entryY=0;" edge="1" parent="1" source="17" target="19">
          <mxGeometry relative="1" as="geometry">
            <Array as="points">
              <mxPoint x="3798" y="329" />
            </Array>
          </mxGeometry>
        </mxCell>
        <mxCell id="47" value="" style="curved=1;startArrow=none;endArrow=block;exitX=0;exitY=0.52;entryX=1;entryY=0.58;" edge="1" parent="1" source="19" target="17">
          <mxGeometry relative="1" as="geometry">
            <Array as="points">
              <mxPoint x="3798" y="371" />
            </Array>
          </mxGeometry>
        </mxCell>
        <mxCell id="48" value="" style="curved=1;startArrow=none;endArrow=block;exitX=0;exitY=0.68;entryX=1;entryY=0.39;" edge="1" parent="1" source="18" target="17">
          <mxGeometry relative="1" as="geometry">
            <Array as="points">
              <mxPoint x="3798" y="300" />
            </Array>
          </mxGeometry>
        </mxCell>
        <mxCell id="49" value="" style="curved=1;startArrow=none;endArrow=block;exitX=0.79;exitY=1.01;entryX=0;entryY=0.5;" edge="1" parent="1" source="15" target="20">
          <mxGeometry relative="1" as="geometry">
            <Array as="points">
              <mxPoint x="2486" y="284" />
            </Array>
          </mxGeometry>
        </mxCell>
        <mxCell id="50" value="Unirse" style="curved=1;startArrow=none;endArrow=block;exitX=0.93;exitY=0;entryX=0.08;entryY=0;" edge="1" parent="1" source="20" target="21">
          <mxGeometry relative="1" as="geometry">
            <Array as="points">
              <mxPoint x="2931" y="10" />
            </Array>
          </mxGeometry>
        </mxCell>
        <mxCell id="51" value="Crear" style="curved=1;startArrow=none;endArrow=block;exitX=0.98;exitY=1;entryX=0;entryY=0.5;" edge="1" parent="1" source="20" target="22">
          <mxGeometry relative="1" as="geometry">
            <Array as="points">
              <mxPoint x="2931" y="530" />
            </Array>
          </mxGeometry>
        </mxCell>
        <mxCell id="52" value="" style="curved=1;startArrow=none;endArrow=block;exitX=0.99;exitY=0.5;entryX=0;entryY=0.5;" edge="1" parent="1" source="22" target="23">
          <mxGeometry relative="1" as="geometry">
            <Array as="points" />
          </mxGeometry>
        </mxCell>
        <mxCell id="53" value="Sí" style="curved=1;startArrow=none;endArrow=block;exitX=1;exitY=0.5;entryX=0;entryY=0.5;" edge="1" parent="1" source="23" target="24">
          <mxGeometry relative="1" as="geometry">
            <Array as="points" />
          </mxGeometry>
        </mxCell>
        <mxCell id="54" value="No" style="curved=1;startArrow=none;endArrow=block;exitX=1;exitY=0.04;entryX=0;entryY=0.73;" edge="1" parent="1" source="23" target="17">
          <mxGeometry relative="1" as="geometry">
            <Array as="points">
              <mxPoint x="3456" y="413" />
            </Array>
          </mxGeometry>
        </mxCell>
        <mxCell id="55" value="" style="curved=1;startArrow=none;endArrow=block;exitX=0;exitY=0.5;entryX=0.6;entryY=0.01;" edge="1" parent="1" source="21" target="15">
          <mxGeometry relative="1" as="geometry">
            <Array as="points">
              <mxPoint x="2486" y="39" />
            </Array>
          </mxGeometry>
        </mxCell>
        <mxCell id="56" value="" style="curved=1;startArrow=none;endArrow=block;exitX=1;exitY=0.49;entryX=0.36;entryY=1.01;" edge="1" parent="1" source="16" target="14">
          <mxGeometry relative="1" as="geometry">
            <Array as="points">
              <mxPoint x="2486" y="730" />
            </Array>
          </mxGeometry>
        </mxCell>
      </root>
    </mxGraphModel>
  </diagram>
</mxfile>
